<svg xmlns="http://www.w3.org/2000/svg" width="251.975" height="87.591" viewBox="0 0 251.975 87.591"><defs><style>.a{fill:#fff;opacity:0.75;}</style></defs><path class="a" d="M.111,115.023c.181.654,1.993,1.213,5.05,1.686.859.134,1.8.26,2.852.386,21.034,2.434,78.244,2.411,100.31,3.293,27.045,1.071-22.83,9.391,38.878,7.248,32.552-1.127,72.973-2.411,104.785-3.435v-6.247l-.8.024c-13.928.536-10.131-6.72-15.2-8.878-5.089-2.151-13.542,2.159-17.339-11.975-3.813-14.157-37.617-5.853-37.617-5.853,16.055-23.776-8.051-59.463-50.734-49-21,5.152-25.028,19.08-23.7,31.906.079.733.173,1.457.276,2.174-.362-.039-.741-.071-1.119-.1a101.539,101.539,0,0,0-13.5-.15C59.708,77.705,45.323,91.4,44.488,98.692c-.843,7.311,19.017,8.28-8.043,10.407C9.407,111.242-1.157,110.462.111,115.023Z" transform="translate(-0.01 -40.396)"/></svg>