<svg xmlns="http://www.w3.org/2000/svg" width="171.023" height="59.45" viewBox="0 0 171.023 59.45"><defs><style>.a{fill:#fff;opacity:0.75;}</style></defs><path class="a" d="M170.964,91.048c-.123.444-1.353.823-3.427,1.144-.583.091-1.224.176-1.936.262-14.277,1.652-53.106,1.636-68.083,2.235-18.356.727,15.5,6.374-26.387,4.919C49.037,98.844,21.6,97.972.01,97.277v-4.24l.54.016c9.453.364,6.876-4.561,10.314-6.026,3.454-1.46,9.191,1.465,11.769-8.127,2.588-9.609,25.532-3.973,25.532-3.973C37.268,58.789,53.63,34.567,82.6,41.668c14.255,3.5,16.987,12.95,16.084,21.655-.053.5-.118.989-.187,1.476.246-.027.5-.048.759-.07a68.918,68.918,0,0,1,9.165-.1c22.094,1.091,31.857,10.384,32.424,15.335s-12.908,5.62,5.459,7.063C164.655,88.481,171.825,87.952,170.964,91.048Z" transform="translate(-0.01 -40.396)"/></svg>