<svg xmlns="http://www.w3.org/2000/svg" width="92.74" height="32.238" viewBox="0 0 92.74 32.238"><defs><style>.a{fill:#fff;opacity:0.75;}</style></defs><path class="a" d="M.047,67.863c.067.241.734.447,1.859.62.316.049.664.1,1.05.142,7.742.9,28.8.887,36.919,1.212,9.954.394-8.4,3.456,14.309,2.668,11.981-.415,26.858-.887,38.566-1.264v-2.3l-.293.009c-5.126.2-3.729-2.473-5.593-3.268s-4.984.794-6.382-4.407-13.845-2.154-13.845-2.154c5.909-8.751-2.963-21.885-18.673-18.035-7.73,1.9-9.212,7.023-8.722,11.743.029.27.064.536.1.8-.133-.014-.273-.026-.412-.038a37.372,37.372,0,0,0-4.97-.055c-11.981.592-17.275,5.631-17.583,8.316s7,3.047-2.96,3.83S-.42,66.184.047,67.863Z" transform="translate(-0.01 -40.396)"/></svg>